# xmcd
#
# Track frame offsets:
#	150
#	23513
#	41197
#	56376
#	72881
#	92746
#	110493
#	130607
#	150090
#	167114
#	183828
#	199837
#	216616
#	233087
#	244421
#
# Disc length: 3528 seconds
#
# Revision: 0
# Processed by: cddbd v1.5.2PL0 Copyright (c) Steve Scherf et al.
# Submitted via: EZCDAudioConverter 2.2.0.1
#
DISCID=c70dc60f
DTITLE=Colt Ford - Ride Through The Country
DYEAR=2014
DGENRE=Country
TTITLE0=Ride Through The Country
TTITLE1=Mr. GoodTime
TTITLE2=No trash in my trailer
TTITLE3=Cold Beer
TTITLE4=Never Through
TTITLE5=Saddle up
TTITLE6=Wallfle House
TTITLE7=Twisted
TTITLE8=tailgate
TTITLE9=Dirt Roadroad Athem
TTITLE10=Good GOD o'Mighty
TTITLE11=Like Me
TTITLE12=Gangsta Of Love
TTITLE13=I can't sing
TTITLE14=Ride Through The Country
EXTD=
EXTT0=
EXTT1=
EXTT2=
EXTT3=
EXTT4=
EXTT5=
EXTT6=
EXTT7=
EXTT8=
EXTT9=
EXTT10=
EXTT11=
EXTT12=
EXTT13=
EXTT14=
PLAYORDER=
